<svg xmlns="http://www.w3.org/2000/svg" viewBox="0 0 1600 900">
<defs><linearGradient id="bg" x1="0" x2="0" y1="0" y2="1"><stop stop-color="#081321"/><stop offset="100%" stop-color="#02070d"/></linearGradient></defs>
<rect width="1600" height="900" fill="url(#bg)"/>
<g fill="#11263b" stroke="#34506d" stroke-width="3">
<rect x="110" y="120" width="320" height="660" rx="8"/><rect x="480" y="120" width="320" height="660" rx="8"/><rect x="850" y="120" width="320" height="660" rx="8"/><rect x="1220" y="120" width="210" height="660" rx="8"/>
</g>
<g fill="#21415e" opacity=".9">
<rect x="145" y="160" width="250" height="24"/><rect x="145" y="208" width="250" height="24"/><rect x="145" y="256" width="250" height="24"/><rect x="145" y="304" width="250" height="24"/><rect x="145" y="352" width="250" height="24"/><rect x="515" y="160" width="250" height="24"/><rect x="515" y="208" width="250" height="24"/><rect x="515" y="256" width="250" height="24"/><rect x="515" y="304" width="250" height="24"/><rect x="885" y="160" width="250" height="24"/><rect x="885" y="208" width="250" height="24"/><rect x="885" y="256" width="250" height="24"/>
</g>
<text x="118" y="110" fill="#f4d28b" font-size="34" font-family="serif">市档案中心</text>
<text x="118" y="850" fill="#d6ae66" font-size="40" font-family="serif">纸页会沉默，但编号不会。</text>
</svg>
